# xmcd
#
# Track frame offsets:
#	150
#	18657
#	36672
#	46477
#	57972
#	78285
#	93282
#	103940
#	118850
#	132585
#	149982
#	165797
#
# Disc length: 2447 seconds
#
# Revision: 0
# Processed by: cddbd v1.5.2PL0 Copyright (c) Steve Scherf et al.
# Submitted via: EasyCDDAExtractor 15.2.1.1
#
DISCID=af098d0c
DTITLE=Domenico Modugno - Lo mejor de Domenico
DYEAR=2000
DGENRE=other
TTITLE0=La distancia es como el viente
TTITLE1=Como estas
TTITLE2=Dios como te amo
TTITLE3=Amarga Flor mia
TTITLE4=Como has hecho
TTITLE5=Recordando con ternura
TTITLE6=Llueve
TTITLE7=Donde como te amo
TTITLE8=Te amo amo a ti
TTITLE9=El hombre del frack
TTITLE10=tuta blu
TTITLE11=Un puntapie a la ciudad
EXTD=
EXTT0=
EXTT1=
EXTT2=
EXTT3=
EXTT4=
EXTT5=
EXTT6=
EXTT7=
EXTT8=
EXTT9=
EXTT10=
EXTT11=
PLAYORDER=
